# Blender v2.93.0 OBJ File: ''
# www.blender.org
mtllib waterfall.mtl
o Plane
v 5.720673 1.493330 12.043510
v 5.720673 -1.906670 12.043510
v 0.231651 1.493330 -5.058120
v 0.231651 -1.906670 -5.058120
v 0.231651 1.493330 5.205207
v 0.231651 -1.906670 5.205207
v 0.919111 1.493330 10.995705
v 0.919111 -1.906670 10.995705
v 3.170701 1.493330 11.758659
v 3.170702 -1.906670 11.758659
v 4.445687 1.493330 11.901085
v 4.445687 -1.906670 11.901085
v 1.924905 -1.906670 11.569464
v 1.924905 1.493330 11.569464
v 3.808194 -1.906670 11.829872
v 3.808194 1.493330 11.829872
v 2.533209 1.493330 11.687447
v 2.533209 -1.906670 11.687447
v 1.379985 -1.906670 11.349918
v 1.379985 1.493330 11.349917
v 0.231651 -1.906670 7.771039
v 0.231651 1.493330 7.771039
v 0.231651 1.493330 9.053954
v 0.231651 -1.906670 9.053954
v 0.624771 1.493330 10.374649
v 0.624771 -1.906670 10.374649
vt 0.000000 0.500000
vt 1.000000 0.500000
vt 1.000000 0.000000
vt 0.000000 0.000000
vt 0.000000 0.625000
vt 1.000000 0.625000
vt 0.000000 0.781250
vt 1.000000 0.781250
vt 1.000000 0.750000
vt 0.000000 0.750000
vt 0.000000 0.906250
vt 1.000000 0.906250
vt 1.000000 0.875000
vt 0.000000 0.875000
vt 0.000000 1.000000
vt 1.000000 1.000000
vt 1.000000 0.937500
vt 0.000000 0.937500
vt 0.000000 0.843750
vt 1.000000 0.843750
vt 1.000000 0.812500
vt 0.000000 0.812500
vt 0.000000 0.687500
vt 1.000000 0.687500
vt 0.000000 0.718750
vt 1.000000 0.718750
vn 1.0000 -0.0000 0.0000
vn 0.6094 -0.0000 -0.7929
vn 0.1110 0.0000 -0.9938
vn 0.1904 0.0000 -0.9817
vn 0.3737 -0.0000 -0.9275
vn 0.9584 -0.0000 -0.2853
vn 0.9037 -0.0000 -0.4283
usemtl None
s off
f 5/1/1 6/2/1 4/3/1 3/4/1
f 22/5/1 21/6/1 6/2/1 5/1/1
f 20/7/2 19/8/2 8/9/2 7/10/2
f 16/11/3 15/12/3 10/13/3 9/14/3
f 1/15/3 2/16/3 12/17/3 11/18/3
f 17/19/4 18/20/4 13/21/4 14/22/4
f 11/18/3 12/17/3 15/12/3 16/11/3
f 9/14/3 10/13/3 18/20/3 17/19/3
f 14/22/5 13/21/5 19/8/5 20/7/5
f 23/23/1 24/24/1 21/6/1 22/5/1
f 25/25/6 26/26/6 24/24/6 23/23/6
f 7/10/7 8/9/7 26/26/7 25/25/7
